<?xml version="1.0" encoding="iso-8859-1"?>
<!-- Uploaded to: SVG Repo, www.svgrepo.com, Generator: SVG Repo Mixer Tools -->
<svg fill="#000000" height="20px" width="20px" version="1.1" id="Capa_1" xmlns="http://www.w3.org/2000/svg" xmlns:xlink="http://www.w3.org/1999/xlink" 
	 viewBox="0 0 511 511" xml:space="preserve">
<g>
	<path d="M439.5,496H431V23.5C431,10.542,420.458,0,407.5,0h-304C90.542,0,80,10.542,80,23.5V496h-8.5c-4.142,0-7.5,3.358-7.5,7.5
		s3.358,7.5,7.5,7.5h368c4.142,0,7.5-3.358,7.5-7.5S443.642,496,439.5,496z M95,23.5c0-4.687,3.813-8.5,8.5-8.5h304
		c4.687,0,8.5,3.813,8.5,8.5V496H95V23.5z"/>
	<path d="M148.146,94.208l16,8c1.077,0.539,2.221,0.793,3.348,0.793c2.751,0,5.4-1.52,6.714-4.147
		c1.853-3.705,0.351-8.21-3.354-10.062l-16-8c-3.703-1.853-8.209-0.351-10.062,3.354S144.441,92.356,148.146,94.208z"/>
	<path d="M284.146,86.208l16,8c1.077,0.539,2.221,0.793,3.348,0.793c2.751,0,5.4-1.52,6.714-4.147
		c1.853-3.705,0.351-8.21-3.354-10.062l-16-8c-3.703-1.852-8.209-0.351-10.062,3.354S280.441,84.356,284.146,86.208z"/>
	<path d="M314.854,200.792l-16-8c-3.704-1.852-8.209-0.351-10.062,3.354s-0.351,8.21,3.354,10.062l16,8
		c1.077,0.539,2.221,0.793,3.348,0.793c2.751,0,5.4-1.52,6.714-4.147C320.061,207.149,318.559,202.644,314.854,200.792z"/>
	<path d="M370.854,256.792l-16-8c-3.702-1.852-8.209-0.351-10.062,3.354s-0.351,8.21,3.354,10.062l16,8
		c1.077,0.539,2.221,0.793,3.348,0.793c2.751,0,5.4-1.52,6.714-4.147C376.061,263.149,374.559,258.644,370.854,256.792z"/>
	<path d="M352.792,132.146c-1.853,3.705-0.351,8.21,3.354,10.062l16,8c1.077,0.539,2.221,0.793,3.348,0.793
		c2.751,0,5.4-1.52,6.714-4.147c1.853-3.705,0.351-8.21-3.354-10.062l-16-8C359.15,126.94,354.645,128.441,352.792,132.146z"/>
	<path d="M234.854,168.792c-3.703-1.853-8.209-0.351-10.062,3.354c-1.853,3.705-0.351,8.21,3.354,10.062l16,8
		c1.077,0.539,2.221,0.793,3.348,0.793c2.751,0,5.4-1.52,6.714-4.147c1.853-3.705,0.351-8.21-3.354-10.062L234.854,168.792z"/>
	<path d="M132.146,262.208l16,8c1.077,0.539,2.221,0.793,3.348,0.793c2.751,0,5.4-1.52,6.714-4.147
		c1.853-3.705,0.351-8.21-3.354-10.062l-16-8c-3.703-1.852-8.209-0.351-10.062,3.354
		C126.939,255.851,128.441,260.356,132.146,262.208z"/>
	<path d="M226.854,424.792l-16-8c-3.704-1.852-8.209-0.351-10.062,3.354s-0.351,8.21,3.354,10.062l16,8
		c1.077,0.539,2.221,0.793,3.348,0.793c2.751,0,5.4-1.52,6.714-4.147C232.061,431.149,230.559,426.644,226.854,424.792z"/>
	<path d="M332.146,318.208l16,8c1.077,0.539,2.221,0.793,3.348,0.793c2.751,0,5.4-1.52,6.714-4.147
		c1.853-3.705,0.351-8.21-3.354-10.062l-16-8c-3.703-1.853-8.209-0.351-10.062,3.354
		C326.939,311.851,328.441,316.356,332.146,318.208z"/>
	<path d="M282.854,400.792l-16-8c-3.703-1.853-8.209-0.351-10.062,3.354c-1.853,3.705-0.351,8.21,3.354,10.062l16,8
		c1.077,0.539,2.221,0.793,3.348,0.793c2.751,0,5.4-1.52,6.714-4.147C288.061,407.149,286.559,402.644,282.854,400.792z"/>
	<path d="M140.146,190.208l16,8c1.077,0.539,2.221,0.793,3.348,0.793c2.751,0,5.4-1.52,6.714-4.147
		c1.853-3.705,0.351-8.21-3.354-10.062l-16-8c-3.703-1.852-8.209-0.351-10.062,3.354S136.441,188.356,140.146,190.208z"/>
	<path d="M232.792,130.854c1.314,2.628,3.962,4.147,6.714,4.147c1.127,0,2.271-0.255,3.348-0.793l16-8
		c3.705-1.852,5.207-6.357,3.354-10.062c-1.852-3.705-6.357-5.208-10.062-3.354l-16,8
		C232.441,122.644,230.939,127.149,232.792,130.854z"/>
	<path d="M308.146,136.792l-16,8c-3.705,1.852-5.207,6.357-3.354,10.062c1.314,2.628,3.962,4.147,6.714,4.147
		c1.127,0,2.271-0.255,3.348-0.793l16-8c3.705-1.852,5.207-6.357,3.354-10.062C316.356,136.441,311.851,134.938,308.146,136.792z"/>
	<path d="M206.208,220.146c-1.852-3.705-6.357-5.208-10.062-3.354l-16,8c-3.705,1.852-5.207,6.357-3.354,10.062
		c1.314,2.628,3.962,4.147,6.714,4.147c1.127,0,2.271-0.255,3.348-0.793l16-8C206.559,228.356,208.061,223.851,206.208,220.146z"/>
	<path d="M148.146,392.792l-16,8c-3.705,1.852-5.207,6.357-3.354,10.062c1.314,2.628,3.962,4.147,6.714,4.147
		c1.127,0,2.271-0.255,3.348-0.793l16-8c3.705-1.852,5.207-6.357,3.354-10.062C156.355,392.441,151.852,390.938,148.146,392.792z"/>
	<path d="M300.146,272.792l-16,8c-3.705,1.852-5.207,6.357-3.354,10.062c1.314,2.628,3.962,4.147,6.714,4.147
		c1.127,0,2.271-0.255,3.348-0.793l16-8c3.705-1.852,5.207-6.357,3.354-10.062C308.356,272.441,303.852,270.938,300.146,272.792z"/>
	<path d="M348.146,408.792l-16,8c-3.705,1.852-5.207,6.357-3.354,10.062c1.314,2.628,3.962,4.147,6.714,4.147
		c1.127,0,2.271-0.255,3.348-0.793l16-8c3.705-1.852,5.207-6.357,3.354-10.062C356.356,408.441,351.852,406.938,348.146,408.792z"/>
	<path d="M300.146,344.792l-16,8c-3.705,1.852-5.207,6.357-3.354,10.062c1.314,2.628,3.962,4.147,6.714,4.147
		c1.127,0,2.271-0.255,3.348-0.793l16-8c3.705-1.852,5.207-6.357,3.354-10.062C308.356,344.441,303.852,342.938,300.146,344.792z"/>
	<path d="M164.146,320.792l-16,8c-3.705,1.852-5.207,6.357-3.354,10.062c1.314,2.628,3.962,4.147,6.714,4.147
		c1.127,0,2.271-0.255,3.348-0.793l16-8c3.705-1.852,5.207-6.357,3.354-10.062C172.356,320.441,167.852,318.939,164.146,320.792z"/>
	<path d="M215.5,79h16c4.142,0,7.5-3.358,7.5-7.5s-3.358-7.5-7.5-7.5h-16c-4.142,0-7.5,3.358-7.5,7.5S211.358,79,215.5,79z"/>
	<path d="M279,239.5c0-4.142-3.358-7.5-7.5-7.5h-16c-4.142,0-7.5,3.358-7.5,7.5s3.358,7.5,7.5,7.5h16
		C275.642,247,279,243.642,279,239.5z"/>
	<path d="M223,279.5c0-4.142-3.358-7.5-7.5-7.5h-16c-4.142,0-7.5,3.358-7.5,7.5s3.358,7.5,7.5,7.5h16
		C219.642,287,223,283.642,223,279.5z"/>
	<path d="M223.5,368h-16c-4.142,0-7.5,3.358-7.5,7.5s3.358,7.5,7.5,7.5h16c4.142,0,7.5-3.358,7.5-7.5S227.642,368,223.5,368z"/>
	<path d="M375.5,360h-16c-4.142,0-7.5,3.358-7.5,7.5s3.358,7.5,7.5,7.5h16c4.142,0,7.5-3.358,7.5-7.5S379.642,360,375.5,360z"/>
	<path d="M351.5,207h16c4.142,0,7.5-3.358,7.5-7.5s-3.358-7.5-7.5-7.5h-16c-4.142,0-7.5,3.358-7.5,7.5S347.358,207,351.5,207z"/>
	<path d="M247.5,320h-16c-4.142,0-7.5,3.358-7.5,7.5s3.358,7.5,7.5,7.5h16c4.142,0,7.5-3.358,7.5-7.5S251.642,320,247.5,320z"/>
	<path d="M351.5,79h16c4.142,0,7.5-3.358,7.5-7.5s-3.358-7.5-7.5-7.5h-16c-4.142,0-7.5,3.358-7.5,7.5S347.358,79,351.5,79z"/>
	<path d="M199,135.5c0-4.142-3.358-7.5-7.5-7.5h-16c-4.142,0-7.5,3.358-7.5,7.5s3.358,7.5,7.5,7.5h16
		C195.642,143,199,139.642,199,135.5z"/>
</g>
</svg>