<?xml version="1.0" encoding="utf-8"?>

<!-- Uploaded to: SVG Repo, www.svgrepo.com, Generator: SVG Repo Mixer Tools -->
<svg fill="#000000" height="20px" width="20px" version="1.1" id="Icons" xmlns="http://www.w3.org/2000/svg" xmlns:xlink="http://www.w3.org/1999/xlink" 
	 viewBox="0 0 32 32" xml:space="preserve">
<g>
	<path d="M9.6,5.2l-3-2c-0.3-0.2-0.8-0.2-1.1,0l-3,2C2.2,5.4,2,5.7,2,6v22c0,0.6,0.4,1,1,1h6c0.6,0,1-0.4,1-1V6
		C10,5.7,9.8,5.4,9.6,5.2z"/>
	<path d="M19.6,5.2l-3-2c-0.3-0.2-0.8-0.2-1.1,0l-3,2C12.2,5.4,12,5.7,12,6v22c0,0.6,0.4,1,1,1h6c0.6,0,1-0.4,1-1V6
		C20,5.7,19.8,5.4,19.6,5.2z"/>
	<path d="M29.6,5.2l-3-2c-0.3-0.2-0.8-0.2-1.1,0l-3,2C22.2,5.4,22,5.7,22,6v22c0,0.6,0.4,1,1,1h6c0.6,0,1-0.4,1-1V6
		C30,5.7,29.8,5.4,29.6,5.2z"/>
</g>
</svg>