<?xml version="1.0" encoding="utf-8"?>
<!-- Svg Vector Icons : http://www.onlinewebfonts.com/icon -->
<!DOCTYPE svg PUBLIC "-//W3C//DTD SVG 1.1//EN" "http://www.w3.org/Graphics/SVG/1.1/DTD/svg11.dtd">
<svg version="1.1" xmlns="http://www.w3.org/2000/svg" xmlns:xlink="http://www.w3.org/1999/xlink" x="0px" y="0px" viewBox="0 0 256 256" enable-background="new 0 0 256 256" xml:space="preserve">
<metadata> Svg Vector Icons : http://www.onlinewebfonts.com/icon </metadata>
<g><g><g><path fill="#000000" d="M147.3,42.3l-11.9,16.4v14.7V88H128h-7.4V73.3V58.7l-11.8-16.1c-6.5-8.9-12-16.1-12.3-16.1c-0.3,0-5.8,7.2-12.2,16.1L72.7,58.7l0,14.6V88h-7.1h-7.1V73.6V59.2L46.5,42.8c-6.6-9-12.2-16.4-12.4-16.4c-0.2,0-5.8,7.3-12.3,16.3L10,59v85.5V230h24.2h24.2v-20v-20.1h7.1h7.1v20.1v20h24h24v-20v-20.1l7.3,0.1l7.2,0.1l0.1,19.9l0.1,20h24h24v-20v-20.1h7.1h7.1v20.1v20h24.2H246v-85.5V59l-11.4-15.5c-6.2-8.6-11.7-16-12.1-16.6c-0.7-1-1-0.7-12.8,15.7l-12.1,16.7v14.4V88h-7.1h-7.1V73.3l0-14.6l-11.9-16.3c-6.5-8.9-12-16.3-12.1-16.4C159.2,25.9,153.8,33.2,147.3,42.3z M42.3,51l7.8,10.7v80v80H34.2H18.3v-80.1V61.5L26,50.8c4.2-5.9,7.8-10.6,8-10.6C34.2,40.2,37.9,45.1,42.3,51z M104.9,51l7.9,10.9v79.9v79.9H96.9H81v-80.2V61.4l7.7-10.7c4.2-5.9,7.8-10.6,8-10.6S100.5,45,104.9,51z M167.3,50.8l7.7,10.6v80.1v80.1h-15.9h-15.9v-79.9V61.9l7.9-10.9c4.3-6,8-10.9,8.2-10.9C159.4,40.1,163,44.9,167.3,50.8z M230.6,51.8l7.1,9.8v80.1v80h-15.9h-15.9v-80v-80l6.1-8.4c3.3-4.6,6.9-9.5,7.9-10.9l1.8-2.5l0.8,1C223,41.5,226.6,46.4,230.6,51.8z M135.3,139.1l-0.1,44.1H128h-7.1l-0.1-44.3l-0.1-44.3l7.4,0.1l7.4,0.1L135.3,139.1z M72.7,139.2v44.3h-7.1h-7.1v-44.3V94.9h7.1h7.1V139.2z M197.6,139.2v44.3h-7.1h-7.1v-44.3V94.9h7.1h7.1V139.2z"/></g></g></g>
</svg>