<?xml version="1.0" encoding="iso-8859-1"?>
<!-- Uploaded to: SVG Repo, www.svgrepo.com, Generator: SVG Repo Mixer Tools -->
<svg fill="#000000" height="20px" width="20px" version="1.1" id="Layer_1" xmlns="http://www.w3.org/2000/svg" xmlns:xlink="http://www.w3.org/1999/xlink" 
	 viewBox="0 0 512.001 512.001" xml:space="preserve">
<g>
	<g>
		<path d="M506.429,150.022c-0.082-6.012-3.396-11.404-8.4-14.265L264.471,2.296c-5.14-3.019-11.57-3.068-16.754-0.107l-0.061,0.036
			c-0.034,0.02-0.07,0.039-0.105,0.06L13.973,135.758c-4.984,2.848-8.413,8.252-8.413,14.664v33.225
			c0,21.766,13.959,40.324,33.392,47.216v50.266c-19.433,6.892-33.392,25.45-33.392,47.216c0,27.618,22.469,50.088,50.088,50.088
			s50.088-22.469,50.088-50.088c0-21.766-13.959-40.324-33.392-47.216v-50.266c6.219-2.206,11.876-5.603,16.696-9.923
			c13.703,12.282,32.875,16.027,50.088,9.923v50.266c-19.433,6.892-33.392,25.45-33.392,47.216
			c0,27.618,22.469,50.088,50.088,50.088c27.619,0,50.088-22.469,50.088-50.088c0-21.766-13.959-40.324-33.392-47.216v-50.266
			c17.192,6.097,36.368,2.374,50.088-9.923c4.82,4.32,10.477,7.717,16.696,9.923v180.962H122.433
			c-27.618,0-50.088,22.469-50.088,50.088v33.392c0,9.221,7.475,16.696,16.696,16.696h333.92c9.221,0,16.696-7.475,16.696-16.696
			v-33.392c0-27.618-22.469-50.088-50.088-50.088H272.696V230.863c6.219-2.206,11.876-5.603,16.696-9.923
			c13.703,12.282,32.875,16.027,50.088,9.923v50.266c-19.433,6.892-33.392,25.45-33.392,47.216
			c0,27.618,22.469,50.088,50.088,50.088s50.088-22.469,50.088-50.088c0-21.766-13.959-40.324-33.392-47.216v-50.266
			c17.192,6.097,36.368,2.374,50.088-9.923c4.82,4.32,10.477,7.717,16.696,9.923v50.266c-19.433,6.892-33.392,25.45-33.392,47.216
			c0,27.618,22.469,50.088,50.088,50.088s50.088-22.469,50.088-50.088c0-21.766-13.959-40.324-33.392-47.216v-50.266
			c19.433-6.893,33.392-25.451,33.392-47.217v-33.225c0-0.009,0-0.019,0-0.028v-0.139C506.44,150.176,506.429,150.1,506.429,150.022
			z M55.649,345.04c-9.206,0-16.696-7.49-16.696-16.696c0-9.206,7.49-16.696,16.696-16.696s16.696,7.49,16.696,16.696
			C72.345,337.55,64.856,345.04,55.649,345.04z M72.345,183.646c0,9.206-7.489,16.696-16.696,16.696
			c-9.206,0-16.696-7.49-16.696-16.696V166.95h33.392V183.646z M122.433,200.342c-9.206,0-16.696-7.49-16.696-16.696V166.95h33.392
			v16.696C139.129,192.852,131.64,200.342,122.433,200.342z M155.825,345.04c-9.206,0-16.696-7.49-16.696-16.696
			c0-9.206,7.49-16.696,16.696-16.696c9.206,0,16.696,7.49,16.696,16.696C172.521,337.55,165.032,345.04,155.825,345.04z
			 M147.478,133.558c-6.793,0-55.657,0-62.351,0L194.24,71.208L147.478,133.558z M205.913,183.646
			c0,9.206-7.489,16.696-16.696,16.696c-9.206,0-16.696-7.49-16.696-16.696V166.95h33.392V183.646z M389.568,445.216
			c9.207,0,16.696,7.489,16.696,16.696v16.696H105.737v-16.696c0-9.206,7.49-16.696,16.696-16.696H389.568z M272.696,183.646
			c0,9.206-7.489,16.696-16.696,16.696c-9.206,0-16.696-7.49-16.696-16.696V166.95h33.392V183.646z M189.217,133.558L256,44.512
			l66.784,89.045C308.741,133.558,203.682,133.558,189.217,133.558z M322.784,200.342c-9.206,0-16.696-7.49-16.696-16.696V166.95
			h33.392v16.696C339.48,192.852,331.992,200.342,322.784,200.342z M356.176,345.04c-9.206,0-16.696-7.49-16.696-16.696
			c0-9.206,7.49-16.696,16.696-16.696c9.206,0,16.696,7.49,16.696,16.696C372.872,337.55,365.384,345.04,356.176,345.04z
			 M406.264,183.646c0,9.206-7.489,16.696-16.696,16.696c-9.206,0-16.696-7.49-16.696-16.696V166.95h33.392V183.646z
			 M364.524,133.558l-46.762-62.349l109.113,62.349C420.181,133.558,371.318,133.558,364.524,133.558z M456.352,345.04
			c-9.206,0-16.696-7.49-16.696-16.696c0-9.206,7.49-16.696,16.696-16.696c9.206,0,16.696,7.49,16.696,16.696
			C473.048,337.55,465.56,345.04,456.352,345.04z M473.048,183.646c0,9.206-7.49,16.696-16.696,16.696
			c-9.206,0-16.696-7.49-16.696-16.696V166.95h33.392V183.646z"/>
	</g>
</g>
</svg>