<svg xmlns="http://www.w3.org/2000/svg" xmlns:xlink="http://www.w3.org/1999/xlink" version="1.1" x="0px" y="0px" viewBox="0 0 74 92.5" style="enable-background:new 0 0 74 74;" xml:space="preserve"><g><path d="M67.52,57.94h-2.64c0.05-0.16,0.09-0.32,0.09-0.5V44.19c0-0.83-0.67-1.5-1.5-1.5h-0.91c0.24-0.49,0.25-1.05,0.01-1.55   l-4.59-9.18c-0.3-0.6-0.91-0.97-1.58-0.97s-1.27,0.37-1.57,0.97l-4.6,9.18c-0.24,0.5-0.23,1.06,0,1.55h-0.9   c-0.24,0-0.46,0.06-0.66,0.16c0.1-0.2,0.16-0.42,0.16-0.66v-2.79c0-0.39-0.15-0.74-0.39-1c0.24-0.27,0.39-0.61,0.39-1V25.57   c0-0.42-0.18-0.8-0.46-1.08c0.16-0.17,0.29-0.36,0.36-0.6c0.19-0.66-0.05-1.32-0.62-1.69L27.72,9.05c-0.49-0.32-1.13-0.32-1.63,0   L5.72,22.2c-0.57,0.37-0.82,1.04-0.63,1.69c0.08,0.24,0.21,0.43,0.37,0.6C5.18,24.78,5,25.16,5,25.57v11.83   c0,0.38,0.15,0.73,0.39,1C5.15,38.67,5,39.01,5,39.41v2.79c0,0.39,0.15,0.73,0.39,1C5.15,43.47,5,43.81,5,44.19v13.21   c0,0.39,0.15,0.74,0.39,1.01C5.15,58.68,5,59.03,5,59.42v4.3c0,0.82,0.66,1.48,1.47,1.48h19.05c0.38,0,0.72-0.15,0.98-0.38   c0.26,0.23,0.6,0.38,0.97,0.38h19.05c0.38,0,0.72-0.15,0.98-0.38c0.26,0.23,0.6,0.38,0.97,0.38h19.05c0.81,0,1.48-0.66,1.48-1.48   v-4.3C69,58.6,68.33,57.94,67.52,57.94z M48.83,44.19c0-0.28,0.22-0.5,0.5-0.5h14.14c0.27,0,0.5,0.22,0.5,0.5v13.24   c0,0.28-0.23,0.5-0.5,0.5h-2.2c-0.28,0-0.5-0.22-0.5-0.5v-6.66c0-0.83-0.68-1.5-1.5-1.5h-5.74c-0.83,0-1.5,0.67-1.5,1.5v6.66   c0,0.28-0.23,0.5-0.5,0.5h-2.2c-0.28,0-0.5-0.22-0.5-0.5V44.19z M24.89,14.92l-9.28,6C15.52,20.97,15.43,21,15.33,21   c-0.16,0-0.32-0.08-0.42-0.23c-0.15-0.23-0.08-0.54,0.15-0.69l9.28-6c0.23-0.15,0.54-0.08,0.69,0.15   C25.18,14.45,25.12,14.76,24.89,14.92z M6,44.19c0-0.28,0.22-0.5,0.5-0.5h9.33c0.27,0,0.5,0.22,0.5,0.5v13.21   c0,0.28-0.23,0.5-0.5,0.5H6.5c-0.28,0-0.5-0.22-0.5-0.5V44.19z M26,63.72c0,0.27-0.22,0.48-0.48,0.48H6.47   C6.21,64.19,6,63.99,6,63.72v-4.3c0-0.27,0.21-0.48,0.47-0.48h19.05c0.26,0,0.48,0.21,0.48,0.48V63.72z M25.52,57.94h-8.29   c0.06-0.16,0.1-0.34,0.1-0.53V44.19c0-0.39-0.15-0.73-0.39-1c0.24-0.27,0.39-0.61,0.39-1v-2.79c0-0.38-0.15-0.72-0.37-0.98   c0.22-0.23,0.37-0.52,0.4-0.86c0.43-4.99,4.54-8.75,9.55-8.75c5.02,0,9.12,3.76,9.55,8.75c0.03,0.34,0.19,0.63,0.41,0.86   c-0.23,0.26-0.37,0.6-0.37,0.98v2.79c0,0.39,0.15,0.73,0.39,1c-0.24,0.27-0.39,0.61-0.39,1v13.21c0,0.19,0.04,0.37,0.1,0.53h-9.13   c-0.37,0-0.71,0.15-0.97,0.38C26.24,58.08,25.9,57.94,25.52,57.94z M47.83,57.41c0,0.28-0.23,0.5-0.5,0.5H38   c-0.28,0-0.5-0.22-0.5-0.5V44.19c0-0.28,0.22-0.5,0.5-0.5h9.33c0.27,0,0.5,0.22,0.5,0.5V57.41z M47.83,37.41   c0,0.27-0.22,0.49-0.49,0.5c-0.01,0-0.01,0-0.01,0h-9.38c-0.25,0-0.47-0.19-0.49-0.42c-0.47-5.51-5.01-9.67-10.55-9.67   c-5.54,0-10.07,4.16-10.54,9.67c-0.02,0.23-0.24,0.42-0.5,0.42H6.5c-0.01,0-0.01,0-0.01,0C6.22,37.89,6,37.68,6,37.41V25.57   c0-0.28,0.22-0.5,0.5-0.5h40.83c0.27,0,0.5,0.22,0.5,0.5V37.41z M68,63.72c0,0.27-0.22,0.48-0.48,0.48H48.47   c-0.26,0-0.47-0.21-0.47-0.48v-4.3c0-0.27,0.21-0.48,0.47-0.48h19.05c0.26,0,0.48,0.21,0.48,0.48V63.72z"/><path d="M8,54.75c0.28,0,0.5-0.22,0.5-0.5v-6.9c0-0.28-0.22-0.5-0.5-0.5s-0.5,0.22-0.5,0.5v6.9C7.5,54.53,7.72,54.75,8,54.75z"/><path d="M8,27.54c-0.28,0-0.5,0.22-0.5,0.5v6.9c0,0.28,0.22,0.5,0.5,0.5s0.5-0.22,0.5-0.5v-6.9C8.5,27.76,8.27,27.54,8,27.54z"/><path d="M39.7,47.16c-0.28,0-0.5,0.22-0.5,0.5v6.9c0,0.28,0.22,0.5,0.5,0.5s0.5-0.22,0.5-0.5v-6.9   C40.2,47.38,39.98,47.16,39.7,47.16z"/></g></svg>