<svg height="30px" xmlns="http://www.w3.org/2000/svg" version="1.1" viewBox="-5.0 -10.0 110.0 135.0">
 <path d="m62.211 98.699c-0.55859 0-1.0078-0.44922-1.0078-1.0078 0-0.55469 0.44922-1.0078 1.0078-1.0078h19.742c0.55859 0 1.0078 0.45312 1.0078 1.0078 0 0.55859-0.44922 1.0078-1.0078 1.0078zm14.527-35.691h18.129v-21.895h-27.297v21.895zm-7.7773-23.918h24.512l-5.6484-5.7539-6.6094-6.7422zm17.125 8.1055c-2.3242-2.3164-5.9609-2.6719-8.6875-0.84375-2.7266 1.8242-3.7852 5.3242-2.5273 8.3555 1.2578 3.0312 4.4844 4.75 7.7031 4.1055s5.5352-3.4688 5.5312-6.7539c0.003906-1.8242-0.72266-3.5742-2.0156-4.8633zm-4.8711-4.0391c4.2461 0 7.9023 2.9961 8.7344 7.1602 0.83203 4.1641-1.3945 8.3359-5.3164 9.9609-3.9219 1.6289-8.4492 0.25781-10.809-3.2695-2.3633-3.5312-1.8984-8.2383 1.1016-11.242 1.6641-1.6719 3.9297-2.6094 6.2891-2.6094zm-26.406 41.574v-3.9492c-0.003906-0.26953-0.10938-0.52734-0.30078-0.71484-0.19141-0.19141-0.44922-0.29688-0.71875-0.30078-0.55859 0.003906-1.0117 0.45703-1.0117 1.0156v3.9492zm36.832-6.7031h-0.003906c0.32812 0.14844 0.62109 0.35547 0.875 0.60547 0.57031 0.57031 0.89062 1.3398 0.89453 2.1484v3.9492h1.457l0.003907-19.707h-3.2305zm-4.3047 6.7031-0.003907-3.9492c0.003907-1.3867 0.94141-2.5977 2.2852-2.9492v-12.809h-3.7773v19.707zm4.0508 0v-3.9492c-0.003907-0.51172-0.38281-0.94141-0.89062-1.0078-0.042969-0.003907-0.085938-0.007813-0.12891-0.007813-0.55859 0.003906-1.0117 0.45703-1.0117 1.0156v3.9492zm-58.957-6.9336 4.6016-5.7969v-26.973h-4.6016zm-30.988 13.523h4.6016v-46.293h-4.6016zm35.59-3.4141-4.6016 5.8047v2.1992h4.6016zm28.527-24.895v-5.8555h-11.875c-1.4727-0.027344-2.875 0.64844-3.7656 1.8203l-11.051 13.938c-0.023438 0.035157-0.050782 0.070313-0.078126 0.10156l-6.543 8.2461c-0.023438 0.035156-0.050782 0.070312-0.074219 0.10547l-6.5859 8.3047c-0.19141 0.24219-0.48438 0.38672-0.79297 0.38672h-8.7852l-2.6953 2.9492v-0.003906c-0.19141 0.21094-0.46094 0.32812-0.74219 0.32812v0.007813l-11.129-0.003906v2.5625l24.348 0.003906c1.4727 0.027344 2.875-0.64844 3.7656-1.8203l1.0312-1.3008c0.027343-0.035156 0.050781-0.070312 0.078124-0.10547l6.543-8.2539c0.023438-0.035156 0.050781-0.066406 0.082031-0.097656l15.723-19.832c0.015625-0.019532 0.03125-0.039063 0.050781-0.058594 0.35547-0.4375 0.80469-0.79297 1.3086-1.0391 0.53125-0.25781 1.1172-0.39062 1.707-0.38672zm-57.5-13.496v3.3477h22.352v-3.3477zm75.762 17.84v-2.332h-6.0742v2.3281zm0 4.3438v-2.3242h-6.0742v2.3242zm0 4.3438v-2.3242h-6.0742v2.3242zm0 4.3438v-2.3242h-6.0742v2.3242zm-19.434 9.6758v-3.3125h-19.797v3.3125zm15.289-5.332h4.1445v-2.3242h-4.9219c0.37891 0.72656 0.64453 1.5117 0.77734 2.3242zm0.097657 5.332h19.797v-3.3125h-19.797zm-8.9727-11.691v-13.348h-3.2305v14.703c0.95703-0.69531 2.0625-1.1602 3.2305-1.3555zm4.9258 0.82031v-14.168h-2.9062v13.273c1.0195 0.097656 2.0078 0.40234 2.9062 0.89453zm-2.2266 5.9453c-0.375-0.37891-0.88672-0.58984-1.418-0.58984-0.53516-0.003906-1.0508 0.20703-1.4258 0.58594-0.37891 0.37891-0.58984 0.89453-0.58594 1.4297 0.003907 0.66797 0.33594 1.2969 0.89453 1.668 0.55859 0.37109 1.2695 0.44141 1.8867 0.18359 0.62109-0.25781 1.0703-0.80859 1.1992-1.4648 0.13281-0.66016-0.074219-1.3398-0.55078-1.8125zm-1.418-2.6055c1.918 0.003906 3.5703 1.3594 3.9414 3.2422 0.375 1.8828-0.63281 3.7695-2.4102 4.5039-1.7734 0.73438-3.8164 0.11328-4.8828-1.4844-1.0664-1.5977-0.85938-3.7266 0.5-5.082 0.75781-0.75391 1.7812-1.1797 2.8516-1.1797zm-12.504-27.391v-5.2305h-3.957v5.2305zm2.0195-5.2305v5.2305h3.9609v-5.2305zm10.484 30.375 0.003907-0.003906c-3.1289 0.007812-5.668 2.543-5.6719 5.6719v10.73h11.34v-10.73c-0.10547-3.0859-2.5859-5.5664-5.6719-5.6719zm-68.355-70.699h0.082032c-0.19141-0.59375-0.28516-1.2148-0.28906-1.8398-0.019531-1.625 0.60938-3.1914 1.75-4.3477s2.6992-1.8086 4.3242-1.8086 3.1797 0.65234 4.3203 1.8086c1.1406 1.1562 1.7734 2.7227 1.75 4.3477 0 0.625-0.097656 1.2461-0.28516 1.8398h7.2422c1.8203 0 3.2969 1.4766 3.2969 3.2969 0 1.8203-1.4766 3.2969-3.2969 3.2969h-18.895c-1.8203 0-3.2969-1.4766-3.2969-3.2969 0-1.8203 1.4766-3.2969 3.2969-3.2969zm64.199 1.7812c-0.10156-0.125-0.21094-0.24609-0.32812-0.35938-1.668-1.6719-4.1836-2.1719-6.3633-1.2656-2.1836 0.90625-3.6055 3.0352-3.6055 5.3984-0.003906 0.32031 0.023438 0.64062 0.074219 0.95703 0.050781 0.28906 0.12109 0.57812 0.21094 0.86328 0.050782 0.12109 0.074219 0.25 0.074219 0.38281 0 0.55469-0.45312 1.0039-1.0078 1.0078h-7.5898c-1.2188 0-2.2109 0.98828-2.2109 2.2109 0 1.2188 0.99219 2.2109 2.2109 2.2109h22.02c0.91406 0 1.7344-0.55859 2.0625-1.4102 0.32812-0.85156 0.097656-1.8203-0.57812-2.4336l-0.058593-0.050782c-0.39844-0.33984-0.90234-0.52344-1.4258-0.52344h-1.4648c-0.10547-0.003907-0.21484-0.019531-0.31641-0.058594-0.25391-0.085937-0.46094-0.26562-0.58203-0.50781-0.11719-0.23828-0.13281-0.51562-0.046875-0.76953 0.10156-0.30078 0.17578-0.60938 0.22656-0.92188 0.27344-1.6914-0.20312-3.4141-1.3008-4.7305zm5.957 5.7617 15.523 0.003906c1.4688-0.03125 2.6445-1.2305 2.6445-2.6992s-1.1758-2.668-2.6445-2.6992h-1.6836v-0.003906c-0.11328 0-0.22266-0.019531-0.32812-0.050781-0.52734-0.17969-0.80859-0.75-0.62891-1.2773 0.12109-0.35938 0.21094-0.72266 0.27344-1.0938 0.058594-0.375 0.085938-0.75 0.085938-1.1289 0-3.8008-3.082-6.8828-6.8828-6.8828-3.8008 0-6.8828 3.082-6.8828 6.8828 0 0.37891 0.027344 0.75391 0.085937 1.1289 0.058594 0.34766 0.14453 0.69531 0.25781 1.0312 0.046875 0.12109 0.074219 0.25 0.074219 0.38281 0 0.26953-0.10547 0.52734-0.29688 0.71484-0.1875 0.19141-0.44531 0.29688-0.71484 0.29688h-2.2227c0.51172 1.0586 0.77734 2.2227 0.77344 3.3984 0.003906 0.40234-0.027344 0.79688-0.089844 1.1914h0.18359c0.88672 0 1.7539 0.28125 2.4727 0.80859zm-46.781 35.734v25.375h-15.734v-25.375h2.0195v18.242h11.691v-18.242z"/></svg>