<?xml version="1.0" encoding="iso-8859-1"?>
<!-- Uploaded to: SVG Repo, www.svgrepo.com, Generator: SVG Repo Mixer Tools -->
<svg fill="#000000" height="20px" width="20px" version="1.1" id="Layer_1" xmlns="http://www.w3.org/2000/svg" xmlns:xlink="http://www.w3.org/1999/xlink" 
	 viewBox="0 0 512.001 512.001" xml:space="preserve">
<g>
	<g>
		<path d="M319.265,365.073c-1.169,8.244,3.595,16.435,11.754,19.287c9.28,3.245,19.436-1.65,22.681-10.933l5.657-16.186
			L319.265,365.073z"/>
	</g>
</g>
<g>
	<g>
		<circle cx="424.168" cy="104.574" r="32.746"/>
	</g>
</g>
<g>
	<g>
		<circle cx="86.864" cy="180.354" r="32.746"/>
	</g>
</g>
<g>
	<g>
		<path d="M511.667,287.869c-1.885-9.65-11.236-15.945-20.886-14.061l-21.834,4.264c6.954-4.792,10.736-12.476,10.758-20.373
			c0.028-10.079,0.203-74.077,0.231-84.266c0.038-13.87-11.296-25.011-25.023-24.913l-22.854,0.163
			c-13.802,0.099-24.882,11.44-24.664,25.236l0.171,10.845l31.969-22.324l-38.028,42.605c-7.882-0.763-58.959-5.705-66.751-6.458
			c-8.153-0.785-15.407,5.183-16.197,13.339c-0.788,8.156,5.183,15.407,13.339,16.197c12.247,1.185,65.514,6.339,74.239,7.183
			c4.726,0.455,9.36-1.373,12.498-4.888l37.124-41.593l-25.186,51.421c-2.554,5.215-4.676,10.975-10.894,12.369
			c-37.919,6.611-31.186,5.437-55.161,9.617c-11.609,2.023-13.797,11.802-15.915,17.861l-8.059,23.058l-161.432,31.531
			c1.615,13.832-6.003,21.85-10.03,26.911l-10.67,13.413l82.748-16.162c0,9.516,0,41.677,0,51.28h-32.804
			c-8.193,0-14.836,6.643-14.836,14.836c0,8.193,6.643,14.836,14.836,14.836h95.281c8.193,0,14.836-6.643,14.836-14.836
			c0-8.193-6.643-14.836-14.836-14.836h-32.804c0-10.425,0-43.416,0-57.075l89.472-17.476c0-4.86,0-1.428,0-12.374
			c0-5.318-1.154-15.496,9.029-21.916l49.564-31.05l-40.118,40.423c-3.309,3.335-5.167,7.843-5.167,12.541v83.613
			c0,9.832,7.971,17.804,17.804,17.804s17.804-7.971,17.804-17.804v-76.278l34.95-35.216l-16.716,27.14l70.149-13.701
			C507.258,306.87,513.552,297.519,511.667,287.869z"/>
	</g>
</g>
<g>
	<g>
		<path d="M182.514,290.121c-0.641-8.168-7.778-14.267-15.951-13.63c-16.813,1.318-39.969,3.135-56.927,4.465l-38.14-42.731
			l31.969,22.324l0.171-10.845c0.218-13.804-10.87-25.137-24.674-25.236c-25.2-0.18-24.622-0.351-28.103,0.376
			c-8.81,1.152-19.802,10.702-19.765,24.373l0.231,84.266c0.037,13.209,10.662,24.915,26.903,24.672l-43.391,8.615
			c-9.343,1.825-15.978,10.543-14.673,19.972c1.413,10.212,11.073,17.011,21.053,15.062l38.104-7.443l25.013-31.443l-19.735-3.678
			l41.856-0.122l-41.196,51.786c-6.125,7.7-5.237,19.073,2.399,25.278c7.704,6.259,19.007,5.009,25.164-2.731l64.565-81.162
			c9.136-11.484,1.184-28.89-13.93-28.89h-0.052l-78.91,0.231l18.384-3.538c0,0-4.011-7.302-27.605-55.486l37.124,41.593
			c3.077,3.448,7.595,5.274,12.229,4.912c10.693-0.838,56.802-4.455,64.258-5.041C177.052,305.431,183.156,298.29,182.514,290.121z"
			/>
	</g>
</g>
</svg>