<?xml version="1.0" encoding="iso-8859-1"?>
<!-- Uploaded to: SVG Repo, www.svgrepo.com, Generator: SVG Repo Mixer Tools -->
<svg fill="#000000" height="20px" width="20px" version="1.1" id="Layer_1" xmlns="http://www.w3.org/2000/svg" xmlns:xlink="http://www.w3.org/1999/xlink" 
	 viewBox="0 0 512 512" xml:space="preserve">
<g>
	<g>
		<path d="M511.988,295.058c-0.014-48.422-36.262-88.543-83.044-94.714v-26.226h26.559c5.13,0,9.735-3.14,11.611-7.914
			c1.875-4.774,0.637-10.209-3.12-13.7L315.806,14.833c-4.785-4.447-12.194-4.447-16.981,0l-148.2,137.671
			c-3.757,3.49-4.996,8.927-3.12,13.701c1.876,4.774,6.482,7.914,11.611,7.914h26.571v94.103L53.226,426.065H12.475
			C5.585,426.065,0,431.65,0,438.54v49.487c0,6.89,5.585,12.475,12.475,12.475h66.939c3.629,0,7.077-1.581,9.447-4.327l85.79-99.477
			l11.036-0.005v91.329c0,6.89,5.585,12.475,12.475,12.475h50.909c6.89,0,12.475-5.585,12.475-12.475v-91.327h91.465v91.327
			c0,6.89,5.585,12.475,12.475,12.475h50.909c6.89,0,12.475-5.585,12.475-12.475V385.56c0.047-0.44,0.075-0.887,0.075-1.34v-55.325
			h9.743c6.89,0,12.475-5.585,12.475-12.475c0-6.89-5.585-12.475-12.475-12.475h-9.743V225.58
			c32.971,5.942,58.085,34.836,58.094,69.481l0.013,192.959c0,6.89,5.586,12.475,12.475,12.475c6.89,0,12.475-5.586,12.475-12.475
			L511.988,295.058z M185.685,371.743l-16.757,0.008c-3.626,0.001-7.073,1.582-9.441,4.327l-85.787,99.475h-48.75v-24.538h34.093
			c3.688,0,7.185-1.632,9.556-4.456l117.086-139.525V371.743z M236.596,475.546h-25.96v-78.853h25.96V475.546z M294.84,371.744
			h-45.77h-38.435v-42.851h84.204V371.744z M403.919,475.546h-25.96v-78.853h25.96V475.546z M403.994,371.744h-38.509h-45.695
			v-42.851h84.204V371.744z M403.994,303.944H210.636v-18.712h193.358V303.944z M394.613,149.169
			c-6.89,0-12.475,5.585-12.475,12.475c0,6.89,5.585,12.475,12.475,12.475h9.381v37.109c-0.014,0.245-0.037,0.487-0.037,0.735
			c0,0.25,0.022,0.492,0.037,0.737v47.582H210.636v-86.163h102.268c6.89,0,12.475-5.585,12.475-12.475
			c0-6.89-5.585-12.475-12.475-12.475H190.872L307.314,41l116.432,108.168H394.613z"/>
	</g>
</g>
<g>
	<g>
		<path d="M358.748,149.169h-9.668c-6.89,0-12.475,5.585-12.475,12.475c0,6.89,5.585,12.475,12.475,12.475h9.668
			c6.89,0,12.475-5.585,12.475-12.475C371.223,154.754,365.638,149.169,358.748,149.169z"/>
	</g>
</g>
<g>
	<g>
		<path d="M307.315,69.842c-19.487,0-35.341,15.854-35.341,35.341s15.853,35.341,35.341,35.341s35.341-15.853,35.341-35.341
			C342.656,85.696,326.802,69.842,307.315,69.842z M307.315,115.576c-5.73,0-10.391-4.662-10.391-10.391
			c0-5.73,4.662-10.391,10.391-10.391c5.73,0,10.391,4.662,10.391,10.391C317.706,110.914,313.044,115.576,307.315,115.576z"/>
	</g>
</g>
</svg>