<?xml version="1.0" encoding="iso-8859-1"?>
<!-- Uploaded to: SVG Repo, www.svgrepo.com, Generator: SVG Repo Mixer Tools -->
<svg fill="#000000" height="20px" width="20px" version="1.1" id="Layer_1" xmlns="http://www.w3.org/2000/svg" xmlns:xlink="http://www.w3.org/1999/xlink" 
	 viewBox="0 0 512 512" xml:space="preserve">
<g>
	<g>
		<path d="M176.632,186.155h-5.773c-5.633,0-10.199,4.566-10.199,10.199c0,5.633,4.566,10.199,10.199,10.199h5.773
			c5.633,0,10.199-4.566,10.199-10.199C186.831,190.721,182.265,186.155,176.632,186.155z"/>
	</g>
</g>
<g>
	<g>
		<path d="M506.112,187.593l-88.391-41.224v-2.925c0-5.633-4.566-10.199-10.199-10.199h-39.827V99.767h2.307
			c5.633,0,10.199-4.566,10.199-10.199c0-5.633-4.566-10.199-10.199-10.199h-26.937c-5.633,0-10.199,4.566-10.199,10.199
			c0,5.633,4.566,10.199,10.199,10.199h4.232v33.476H190.745c-4.851-27.833-29.168-49.064-58.367-49.064H99.67
			c-3.548,0-6.843,1.845-8.697,4.871c-1.854,3.026-2.001,6.799-0.39,9.961l17.452,34.233H99.67c-5.633,0-10.199,4.566-10.199,10.199
			v3.219L8.158,163.272C3.41,164.242,0,168.418,0,173.265v47.14c0,4.846,3.41,9.023,8.158,9.993l81.312,16.611v3.219
			c0,5.633,4.566,10.199,10.199,10.199h8.365L90.583,294.66c-1.611,3.162-1.465,6.934,0.39,9.961
			c1.854,3.026,5.148,4.871,8.697,4.871h32.709c29.199,0,53.516-21.232,58.367-49.064h52.284c0.056,0.027,0.107,0.058,0.164,0.084
			l9.186,4.083l-34.814,5.247c-6.176,0.931-10.66,5.94-10.904,12.181c-0.244,6.242,3.835,11.585,9.92,12.997
			c0.058,0.013,0.116,0.027,0.174,0.039l25.064,5.351l-25.077,4.551c-0.05,0.009-0.101,0.019-0.151,0.029
			c-6.091,1.2-10.346,6.375-10.346,12.583s4.253,11.383,10.345,12.585c0.05,0.01,0.102,0.019,0.152,0.029l25.098,4.555
			l-25.862,5.526c-0.057,0.012-0.115,0.026-0.172,0.039c-6.014,1.395-10.096,6.68-9.924,12.852
			c0.172,6.172,4.541,11.221,10.623,12.279l43.458,7.559l-17.067,10.38h-45.099c-13.581,0-24.63,11.049-24.63,24.629
			c0,13.581,11.049,24.63,24.63,24.63h103.9c13.581,0,24.63-11.049,24.63-24.63c0-13.58-11.049-24.629-24.63-24.629h-19.548
			l5.636-3.428c4.611-2.804,6.943-8.042,5.938-13.345c-1.004-5.303-5.088-9.326-10.404-10.249l-24.81-4.314l25.126-5.369
			c0.057-0.012,0.115-0.026,0.172-0.039c5.947-1.379,10.029-6.605,9.927-12.708c-0.102-6.103-4.356-11.191-10.345-12.371
			c-0.05-0.01-0.1-0.019-0.15-0.029l-21.766-3.951l21.766-3.95c0.05-0.009,0.101-0.019,0.15-0.029
			c5.99-1.18,10.243-6.267,10.345-12.371s-3.981-11.329-9.927-12.708c-0.058-0.013-0.116-0.026-0.174-0.039l-21.866-4.667
			l19.313-2.911c5.689-0.857,10.029-5.264,10.799-10.965c0.472-3.494-0.482-6.871-2.499-9.503h118.139
			c5.633,0,10.199-4.566,10.199-10.199v-2.925l88.391-41.224c3.592-1.676,5.888-5.28,5.888-9.244
			C512,192.873,509.704,189.269,506.112,187.593z M89.469,226.19l-69.071-14.112v-5.525h69.071V226.19z M89.469,186.154H20.398
			v-4.563l69.071-14.112V186.154z M301.698,403.771c2.333,0,4.231,1.898,4.231,4.231c0,2.334-1.898,4.232-4.232,4.232H197.797
			c-2.334,0-4.232-1.898-4.232-4.232c0-2.334,1.898-4.231,4.232-4.231H301.698z M310.644,153.641
			c-3.063,3.974-7.87,6.539-13.263,6.539H209.81c-5.394,0-10.2-2.565-13.263-6.539H310.644z M132.378,104.577
			c17.903,0,33.017,12.167,37.508,28.666H130.93l-14.614-28.666H132.378z M132.378,289.092h-16.062l14.614-28.666h38.955
			C165.394,276.927,150.28,289.092,132.378,289.092z M397.321,240.028H109.868v-33.475h28.282c5.633,0,10.199-4.566,10.199-10.199
			c0-5.633-4.566-10.199-10.199-10.199h-28.282v-32.514h64.241c4.445,15.531,18.761,26.937,35.7,26.937h87.571
			c16.94,0,31.256-11.405,35.7-26.937h64.241V240.028z M417.721,224.795v-55.92l59.951,27.96L417.721,224.795z"/>
	</g>
</g>
</svg>