<?xml version="1.0" encoding="iso-8859-1"?>
<!-- Uploaded to: SVG Repo, www.svgrepo.com, Generator: SVG Repo Mixer Tools -->
<svg fill="#000000" height="20px" width="20px" version="1.1" id="Layer_1" xmlns="http://www.w3.org/2000/svg" xmlns:xlink="http://www.w3.org/1999/xlink" 
	 viewBox="0 0 512 512" xml:space="preserve">
<g transform="translate(1 1)">
	<g>
		<g>
			<path d="M249.514,179.8c1.829,0.914,3.657,1.829,5.486,1.829c1.829,0,3.657-0.914,5.486-1.829l64-45.714
				c1.829-1.829,3.657-4.571,3.657-7.314s-0.914-5.486-3.657-7.314l-64-45.714c-3.657-1.829-8.229-1.829-10.971,0l-64,45.714
				c-1.829,1.829-3.657,4.571-3.657,7.314s1.829,5.486,3.657,7.314L249.514,179.8z M255,92.029l48.457,34.743L255,161.514
				l-48.457-34.743L255,92.029z"/>
			<path d="M273.286,190.771c0,2.743,1.829,5.486,3.657,7.314l64,45.714c1.829,0.914,3.657,1.829,5.486,1.829
				s3.657-0.914,5.486-1.829l64-45.714c1.829-1.829,3.657-4.571,3.657-7.314s-0.914-5.486-3.657-7.314l-64-45.714
				c-3.657-1.829-8.229-1.829-10.971,0l-64,45.714C275.114,185.286,273.286,188.029,273.286,190.771z M346.429,156.029
				l48.457,34.743l-48.457,34.743l-48.457-34.743L346.429,156.029z"/>
			<path d="M158.086,243.8c1.829,0.914,3.657,1.829,5.486,1.829c1.829,0,3.657-0.914,5.486-1.829l64-45.714
				c1.829-1.829,3.657-4.571,3.657-7.314s-0.914-5.486-3.657-7.314l-64-45.714c-3.657-1.829-8.229-1.829-10.971,0l-64,45.714
				c-1.829,1.829-3.657,4.571-3.657,7.314s1.829,5.486,3.657,7.314L158.086,243.8z M163.571,156.029l48.457,34.743l-48.457,34.743
				l-48.457-34.743L163.571,156.029z"/>
			<path d="M260.486,201.743c-3.657-1.829-8.229-1.829-10.971,0l-64,45.714c-1.829,1.829-3.657,4.571-3.657,7.314
				s1.829,5.486,3.657,7.314l64,45.714c1.829,0.914,3.657,1.829,5.486,1.829c1.829,0,3.657-0.914,5.486-1.829l64-45.714
				c1.829-1.829,3.657-4.571,3.657-7.314s-0.914-5.486-3.657-7.314L260.486,201.743z M255,289.514l-48.457-34.743L255,220.029
				l48.457,34.743L255,289.514z"/>
			<path d="M324.486,375.457l-64-45.714c-3.657-1.829-8.229-1.829-10.971,0l-64,45.714c-1.829,1.829-3.657,4.571-3.657,7.314
				s1.829,5.486,3.657,7.314l64,45.714c1.829,0.914,3.657,1.829,5.486,1.829c1.829,0,3.657-0.914,5.486-1.829l64-45.714
				c1.829-1.829,3.657-4.571,3.657-7.314S327.229,377.286,324.486,375.457z M255,417.514l-48.457-34.743L255,348.029l48.457,34.743
				L255,417.514z"/>
			<path d="M507.343,247.457l-64-45.714c-3.657-1.829-8.229-1.829-10.971,0l-64,45.714c-1.829,1.829-3.657,4.571-3.657,7.314
				s1.829,5.486,3.657,7.314l64,45.714c1.829,0.914,3.657,1.829,5.486,1.829c1.829,0,3.657-0.914,5.486-1.829l64-45.714
				c1.829-1.829,3.657-4.571,3.657-7.314S510.086,249.286,507.343,247.457z M437.857,289.514L389.4,254.771l48.457-34.743
				l48.457,34.743L437.857,289.514z"/>
			<path d="M415.914,311.457l-64-45.714c-3.657-1.829-8.229-1.829-10.971,0l-64,45.714c-1.829,1.829-3.657,4.571-3.657,7.314
				s1.829,5.486,3.657,7.314l64,45.714c1.829,0.914,3.657,1.829,5.486,1.829s3.657-0.914,5.486-1.829l64-45.714
				c1.829-1.829,3.657-4.571,3.657-7.314S418.657,313.286,415.914,311.457z M346.429,353.514l-48.457-34.743l48.457-34.743
				l48.457,34.743L346.429,353.514z"/>
			<path d="M145.286,254.771c0-2.743-0.914-5.486-3.657-7.314l-64-45.714c-3.657-1.829-8.229-1.829-10.971,0l-64,45.714
				C0.829,249.286-1,252.029-1,254.771s1.829,5.486,3.657,7.314l64,45.714c1.829,0.914,3.657,1.829,5.486,1.829
				c1.829,0,3.657-0.914,5.486-1.829l64-45.714C143.457,260.257,145.286,257.514,145.286,254.771z M72.143,289.514l-48.457-34.743
				l48.457-34.743l48.457,34.743L72.143,289.514z"/>
			<path d="M236.714,318.771c0-2.743-0.914-5.486-3.657-7.314l-64-45.714c-3.657-1.829-8.229-1.829-10.971,0l-64,45.714
				c-1.829,1.829-3.657,4.571-3.657,7.314s1.829,5.486,3.657,7.314l64,45.714c1.829,0.914,3.657,1.829,5.486,1.829
				c1.829,0,3.657-0.914,5.486-1.829l64-45.714C234.886,324.257,236.714,321.514,236.714,318.771z M163.571,353.514l-48.457-34.743
				l48.457-34.743l48.457,34.743L163.571,353.514z"/>
		</g>
	</g>
</g>
</svg>