<svg xmlns="http://www.w3.org/2000/svg" xmlns:xlink="http://www.w3.org/1999/xlink" version="1.1" x="0px" y="0px" viewBox="0 0 100 125" enable-background="new 0 0 100 100" xml:space="preserve"><path d="M9.952,77.66c1.687,0.845,3.567,1.581,5.583,2.218l-1.69,5.071c-0.518,1.555-2.206,2.426-3.794,1.897  c-1.57-0.524-2.42-2.224-1.896-3.795L9.952,77.66z"/><path d="M91.845,83.051c0.524,1.572-0.325,3.271-1.896,3.795c-1.588,0.529-3.276-0.342-3.794-1.897l-1.69-5.071  c2.016-0.636,3.896-1.372,5.583-2.218L91.845,83.051z"/><path d="M53,83.972V90c0,1.657-1.342,3-3,3s-3-1.343-3-3v-6.028C49.154,84.009,50.88,84.009,53,83.972z"/><path d="M50,78c23.196,0,42-4.701,42-10.5S73.196,57,50,57S8,61.701,8,67.5S26.804,78,50,78z M50,65.077  c4.971,0,9,1.085,9,2.423c0,1.338-4.029,2.423-9,2.423s-9-1.085-9-2.423C41,66.162,45.029,65.077,50,65.077z"/><path d="M42.5,15c0-4.142,3.358-7.5,7.5-7.5s7.5,3.358,7.5,7.5c0,4.142-3.358,7.5-7.5,7.5S42.5,19.142,42.5,15z"/><path d="M44,41.646V31.592l-6.727-1.682c-1.608-0.401-2.587-2.03-2.183-3.639c0.401-1.605,2.027-2.593,3.636-2.183  L50,26.908l11.273-2.818c1.603-0.409,3.234,0.577,3.636,2.183c0.404,1.608-0.574,3.237-2.183,3.639L56,31.592v10.053l7.342,3.671  c1.482,0.741,2.083,2.543,1.342,4.025c-0.749,1.494-2.556,2.077-4.025,1.342L50,45.354l-10.658,5.329  c-1.482,0.744-3.281,0.142-4.025-1.342c-0.741-1.482-0.141-3.284,1.342-4.025L44,41.646z"/></svg>