<svg xmlns="http://www.w3.org/2000/svg" version="1.1" viewBox="-5.0 -10.0 110.0 135.0">
 <g>
  <path d="m80.98 4.25h-18.52c-3.0117 0-5.4609 2.4492-5.4609 5.4609v8.5312l-7.8203 7.8086h-8.5195c-3.0117 0-5.4609 2.4492-5.4609 5.4609v8.5312l-8.0508 8.0508h-8.1289c-3.0117 0-5.4609 2.4492-5.4609 5.4609v18.52c0 2.3281 1.4805 4.3281 3.5391 5.1016l-0.98047 17.789c-0.03125 0.42188 0.32812 0.80078 0.75 0.78906h3.1797c0.39844 0 0.73047-0.30859 0.75-0.71094l0.96094-17.52h13.398l0.96094 17.52c0.019531 0.39844 0.35156 0.71094 0.75 0.71094h3.1797c0.42188 0.011719 0.78125-0.37109 0.75-0.78906l-0.98047-17.949c1.8828-0.86719 3.1836-2.7539 3.1836-4.957v-7.7383l8.8281-8.8398h4.1016l0.96094 17.52c0.019531 0.39844 0.35156 0.71094 0.75 0.71094h3.1797c0.42188 0.011718 0.78125-0.37109 0.75-0.78906l-0.96875-17.641c2.3086-0.62891 4.0195-2.7383 4.0195-5.25v-7.3516l9.0117-9h4.1016l0.96094 17.52c0.019532 0.39844 0.35156 0.71094 0.75 0.71094h3.1797c0.42188 0.011719 0.78125-0.37109 0.75-0.78906l-0.96875-17.641c2.3086-0.62891 4.0195-2.7383 4.0195-5.25l-0.003906-18.52c0.007813-3.0117-2.4336-5.4609-5.4414-5.4609zm-61.629 90h-1.6797l0.92188-16.73h1.6797zm19.008-16.73 0.92188 16.73h-1.6797l-0.92187-16.73h1.6797zm3.1406-5.4609c0 2.1797-1.7695 3.9609-3.9609 3.9609h-1.6602-16.859c-2.1797 0-3.9609-1.7695-3.9609-3.9609v-18.52c0-2.1797 1.7695-3.9609 3.9609-3.9609h18.52c2.1797 0 3.9609 1.7695 3.9609 3.9609zm-3.9609-23.969h-8.2695l13.211-13.211c1.8008-1.8086 4.1992-2.8008 6.75-2.8008 5.2695-0.058594 10.02 4.6992 9.9609 9.9609 0 2.5508-0.98828 4.9492-2.8008 6.75-0.03125 0.011719-5.3906 5.4102-5.4219 5.4219l-7.9688 7.9883v-8.6484c0-3.0117-2.4492-5.4609-5.4609-5.4609zm20.812 24.121-0.92187-16.73h1.6797l0.92188 16.73zm4.7773-22.18c0 2.1797-1.7695 3.9492-3.9492 3.9492h-5.8516l4.1289-4.1289c4.4609-4.2695 4.2188-11.98-0.41016-16.031-4.1094-4.3008-11.52-4.3008-15.629 0l-4.7188 4.7188v-7.0312c0-2.1797 1.7812-3.9609 3.9609-3.9609h18.52c2.1797 0 3.9492 1.7812 3.9492 3.9609zm-3.9492-23.98h-7.8789l6.9688-6.9609c0.011719-0.011719 0.011719-0.011719 0.019531-0.019532l5.9883-5.9883c3.7109-3.8906 10.422-3.6406 13.922 0.41016 3.7188 3.7188 3.7188 9.7812 0 13.512l-13.57 13.555v-9.0508c0-3.0078-2.4492-5.457-5.4492-5.457zm20.969 24.359-0.92188-16.73h1.6797l0.92188 16.73zm4.7812-22.18c0 2.1797-1.7695 3.9492-3.9492 3.9492h-5.8398l4.1211-4.1211c7.1211-7.1211 1.5781-19.23-8.2305-19.281-2.9492 0-5.7305 1.1484-7.8086 3.2383l-4.7188 4.7188-0.003906-7.0234c0-2.1797 1.7812-3.9609 3.9609-3.9609h18.52c2.1797 0 3.9492 1.7812 3.9492 3.9609z"/>
  <path d="m81.449 8.5781c-0.87891 0.66016 0.10938 1.9297 0.92969 1.1914 0.89062-0.66797-0.097656-1.9414-0.92969-1.1914z"/>
  <path d="m82.379 28.172c-0.82812-0.73828-1.8203 0.53125-0.92969 1.1914 0.83203 0.73828 1.8203-0.53516 0.92969-1.1914z"/>
  <path d="m62.59 8.3711c-0.82812-0.73828-1.8086 0.53906-0.92969 1.1914 0.82812 0.73828 1.8086-0.53125 0.92969-1.1914z"/>
  <path d="m59.648 30.379c-0.87891 0.66016 0.10937 1.9297 0.92969 1.1914 0.89062-0.67187-0.097656-1.9414-0.92969-1.1914z"/>
  <path d="m38.422 53.82c0.66016 0 1.1914-0.89844 0.66016-1.4102-1.0625-0.89844-2.1914 1.2305-0.66016 1.4102z"/>
  <path d="m17.621 53.602c0.82812 0.73828 1.8203-0.53125 0.92969-1.1914-0.83203-0.73828-1.8203 0.53125-0.92969 1.1914z"/>
  <path d="m17.621 72.012c-0.87891 0.66016 0.10938 1.9297 0.92969 1.1914 0.87891-0.67188-0.10938-1.9336-0.92969-1.1914z"/>
  <path d="m38.949 72.012c-0.82812-0.73828-1.8203 0.53125-0.92969 1.1914 0.82031 0.73828 1.8086-0.53125 0.92969-1.1914z"/>
  <path d="m28.762 51.461c-6.5195-0.32813-11.961 5.1211-11.629 11.629 0.48047 14.719 22.199 14.711 22.68 0 0.30859-6.2812-4.7344-11.648-11.051-11.629zm9.5586 11.629c0.019532 5.4883-4.6719 9.8516-10.129 9.5508-12.73-0.41016-12.73-19.281 0-19.68 5.6797-0.32031 10.449 4.4375 10.129 10.129z"/>
  <path d="m60.578 49.969c-0.82812-0.73828-1.8203 0.53125-0.92969 1.1914 0.83203 0.73828 1.8203-0.53125 0.92969-1.1914z"/>
  <path d="m40.789 30.172c-0.82812-0.73828-1.8203 0.53125-0.92969 1.1914 0.82031 0.73828 1.8125-0.53516 0.92969-1.1914z"/>
 </g>
</svg>