<?xml version="1.0" encoding="utf-8"?>
<!-- Generator: Adobe Illustrator 24.1.1, SVG Export Plug-In . SVG Version: 6.00 Build 0)  -->
<svg version="1.1" id="Layer_1" xmlns="http://www.w3.org/2000/svg" xmlns:xlink="http://www.w3.org/1999/xlink" x="0px" y="0px"
	 viewBox="0 0 512 512" style="enable-background:new 0 0 512 512;" xml:space="preserve">
<style type="text/css">
	.st0{fill-rule:evenodd;clip-rule:evenodd;}
</style>
<g>
	<path class="st0" d="M248.5,49.9c4.7-2.5,10.3-2.5,15,0l240,128c7.8,4.2,10.7,13.9,6.6,21.6l-6.6,6.6l-240,128
		c-4.7,2.5-10.3,2.5-15,0l-240-128c-7.8-4.2-10.7-13.9-6.6-21.6l6.6-6.6L248.5,49.9z"/>
	<path class="st0" d="M68,274.1L8.5,305.9c-7.8,4.2-10.7,13.9-6.6,21.6l6.6,6.6l240,128c4.7,2.5,10.3,2.5,15,0l240-128
		c7.8-4.2,10.7-13.9,6.6-21.6l-6.6-6.6L444,274.1l-165.5,88.2c-14.1,7.5-31,7.5-45.1,0l13.4-25.1l-13.4,25.1L68,274.1z"/>
</g>
</svg>
